<svg width="600" height="600" viewBox="0 0 600 600" fill="none" xmlns="http://www.w3.org/2000/svg">
<rect width="600" height="600" fill="#6433A2"/>
<path d="M195.704 427C193.281 427 191.705 425.788 190.978 423.365L132.452 245.967C132.209 245.482 132.088 244.876 132.088 244.149C132.088 241.968 133.421 240.878 136.087 240.878H173.166C175.832 240.878 177.528 242.089 178.255 244.513L213.516 365.929C213.759 366.656 214.122 367.019 214.607 367.019C215.092 367.019 215.455 366.656 215.698 365.929L250.959 244.513C251.686 242.089 253.383 240.878 256.048 240.878L293.127 241.605C294.581 241.605 295.672 242.089 296.399 243.059C297.126 243.786 297.247 244.998 296.763 246.694L238.599 423.365C237.872 425.788 236.297 427 233.874 427H195.704ZM452.679 289.226C456.798 302.797 458.858 317.58 458.858 333.575C458.858 350.782 456.556 365.929 451.952 379.015C446.62 395.01 438.017 407.491 426.142 416.458C414.267 425.425 399.726 429.908 382.519 429.908C365.555 429.908 351.62 423.486 340.714 410.642C340.23 409.915 339.745 409.672 339.26 409.915C338.776 410.157 338.533 410.642 338.533 411.369V422.638C338.533 423.849 338.049 424.94 337.079 425.909C336.352 426.636 335.383 427 334.171 427H300.727C299.515 427 298.425 426.636 297.456 425.909C296.728 424.94 296.365 423.849 296.365 422.638V176.898C296.365 175.687 296.728 174.717 297.456 173.99C298.425 173.021 299.515 172.536 300.727 172.536H334.171C335.383 172.536 336.352 173.021 337.079 173.99C338.049 174.717 338.533 175.687 338.533 176.898V255.782C338.533 256.509 338.776 256.994 339.26 257.236C339.745 257.479 340.23 257.357 340.714 256.873C351.135 244.513 364.949 238.333 382.156 238.333C400.089 238.333 414.872 242.817 426.505 251.783C438.38 260.75 447.105 273.231 452.679 289.226ZM406.875 376.107C412.691 365.929 415.6 351.994 415.6 334.302C415.6 315.399 411.964 300.616 404.694 289.953C398.151 279.774 388.457 274.685 375.612 274.685C363.737 274.685 354.649 280.017 348.348 290.68C342.29 300.616 339.26 315.036 339.26 333.939C339.26 352.6 342.047 366.656 347.621 376.107C353.922 387.74 363.374 393.556 375.976 393.556C382.762 393.556 388.82 392.102 394.152 389.194C399.483 386.043 403.725 381.681 406.875 376.107Z" fill="white"/>
</svg>
